<svg xmlns="http://www.w3.org/2000/svg" width="14" height="18" viewBox="0 0 28 36">
  <defs>
    <style>
      .cls-1 {
        fill: #8d691d;
        fill-rule: evenodd;
      }
    </style>
  </defs>
  <path id="Account" class="cls-1" d="M590,154h0v10a4,4,0,0,1-4,4H566a4,4,0,0,1-4-4V144h0v10a13.953,13.953,0,0,1,6.344-11.681,8,8,0,1,1,15.312,0A13.953,13.953,0,0,1,590,154Zm-14-20a6,6,0,1,0,6,6A6,6,0,0,0,576,134Zm6.82,10.166a7.984,7.984,0,0,1-13.64,0A11.947,11.947,0,0,0,564,154h0v10a2,2,0,0,0,2,2h20a2,2,0,0,0,2-2V154h0A11.947,11.947,0,0,0,582.82,144.166Z" transform="translate(-562 -132)"/>
</svg>
